<mxfile host="65bd71144e">
    <diagram id="ciPo3X5teLXdfqjWm5yF" name="Page-1">
        <mxGraphModel dx="643" dy="454" grid="1" gridSize="10" guides="1" tooltips="1" connect="1" arrows="1" fold="1" page="1" pageScale="1" pageWidth="850" pageHeight="1100" math="0" shadow="0">
            <root>
                <mxCell id="0"/>
                <mxCell id="1" parent="0"/>
                <mxCell id="2" style="edgeStyle=none;rounded=0;html=1;entryX=0;entryY=0.5;entryDx=0;entryDy=0;endArrow=none;endFill=0;" parent="1" target="8" edge="1">
                    <mxGeometry relative="1" as="geometry">
                        <mxPoint x="350" y="340" as="sourcePoint"/>
                    </mxGeometry>
                </mxCell>
                <mxCell id="3" style="edgeStyle=none;rounded=0;html=1;exitX=0;exitY=0.5;exitDx=0;exitDy=0;exitPerimeter=0;endArrow=none;endFill=0;" parent="1" source="4" edge="1">
                    <mxGeometry relative="1" as="geometry">
                        <mxPoint x="349.79310344827593" y="340" as="targetPoint"/>
                    </mxGeometry>
                </mxCell>
                <mxCell id="4" value="" style="pointerEvents=1;verticalLabelPosition=bottom;shadow=0;dashed=0;align=center;html=1;verticalAlign=top;shape=mxgraph.electrical.resistors.resistor_2;rotation=-90;" parent="1" vertex="1">
                    <mxGeometry x="300" y="270" width="100" height="20" as="geometry"/>
                </mxCell>
                <mxCell id="5" value="" style="verticalLabelPosition=bottom;shadow=0;dashed=0;align=center;html=1;verticalAlign=top;shape=mxgraph.electrical.logic_gates.buffer2;rotation=-180;" parent="1" vertex="1">
                    <mxGeometry x="410" y="200" width="100" height="60" as="geometry"/>
                </mxCell>
                <mxCell id="6" value="" style="edgeStyle=none;orthogonalLoop=1;jettySize=auto;html=1;endArrow=none;endFill=0;" parent="1" edge="1">
                    <mxGeometry width="80" relative="1" as="geometry">
                        <mxPoint x="430" y="260" as="sourcePoint"/>
                        <mxPoint x="430" y="200" as="targetPoint"/>
                        <Array as="points"/>
                    </mxGeometry>
                </mxCell>
                <mxCell id="7" value="" style="edgeStyle=none;orthogonalLoop=1;jettySize=auto;html=1;endArrow=none;endFill=0;" parent="1" edge="1">
                    <mxGeometry width="80" relative="1" as="geometry">
                        <mxPoint x="410" y="230" as="sourcePoint"/>
                        <mxPoint x="350" y="230" as="targetPoint"/>
                        <Array as="points"/>
                    </mxGeometry>
                </mxCell>
                <mxCell id="8" value="" style="pointerEvents=1;verticalLabelPosition=bottom;shadow=0;dashed=0;align=center;html=1;verticalAlign=top;shape=mxgraph.electrical.miscellaneous.batteryStack;rotation=-90;" parent="1" vertex="1">
                    <mxGeometry x="480" y="260" width="100" height="60" as="geometry"/>
                </mxCell>
                <mxCell id="9" value="" style="edgeStyle=none;orthogonalLoop=1;jettySize=auto;html=1;endArrow=none;endFill=0;exitX=0;exitY=0.5;exitDx=0;exitDy=0;entryX=1;entryY=0.5;entryDx=0;entryDy=0;rounded=0;" parent="1" source="5" target="8" edge="1">
                    <mxGeometry width="80" relative="1" as="geometry">
                        <mxPoint x="470" y="340" as="sourcePoint"/>
                        <mxPoint x="550" y="340" as="targetPoint"/>
                        <Array as="points">
                            <mxPoint x="530" y="230"/>
                        </Array>
                    </mxGeometry>
                </mxCell>
                <mxCell id="10" value="5 V" style="text;strokeColor=none;align=center;fillColor=none;html=1;verticalAlign=middle;whiteSpace=wrap;rounded=0;" parent="1" vertex="1">
                    <mxGeometry x="550" y="275" width="60" height="30" as="geometry"/>
                </mxCell>
                <mxCell id="11" value="" style="edgeStyle=none;orthogonalLoop=1;jettySize=auto;html=1;rounded=0;endArrow=classic;endFill=1;" parent="1" edge="1">
                    <mxGeometry width="80" relative="1" as="geometry">
                        <mxPoint x="430" y="250" as="sourcePoint"/>
                        <mxPoint x="400" y="270" as="targetPoint"/>
                        <Array as="points"/>
                    </mxGeometry>
                </mxCell>
                <mxCell id="12" value="" style="edgeStyle=none;orthogonalLoop=1;jettySize=auto;html=1;rounded=0;endArrow=classic;endFill=1;" parent="1" edge="1">
                    <mxGeometry width="80" relative="1" as="geometry">
                        <mxPoint x="440" y="260" as="sourcePoint"/>
                        <mxPoint x="410" y="280" as="targetPoint"/>
                        <Array as="points"/>
                    </mxGeometry>
                </mxCell>
                <mxCell id="13" value="Justin, L&lt;br&gt;TEJ3M&lt;br&gt;4-03" style="text;strokeColor=none;align=left;fillColor=none;html=1;verticalAlign=middle;whiteSpace=wrap;rounded=0;" parent="1" vertex="1">
                    <mxGeometry x="330" y="190" width="60" height="30" as="geometry"/>
                </mxCell>
                <mxCell id="14" value="220 Î©" style="text;strokeColor=none;align=center;fillColor=none;html=1;verticalAlign=middle;whiteSpace=wrap;rounded=0;labelBackgroundColor=none;" parent="1" vertex="1">
                    <mxGeometry x="290" y="270" width="60" height="30" as="geometry"/>
                </mxCell>
            </root>
        </mxGraphModel>
    </diagram>
</mxfile>